sc<svg font-size="16px" class="fui-Icon-regular ___12fm75w f1w7gpdv fez10in fg4l7m0" fill="currentColor" aria-hidden="true" width="1em" height="1em" viewBox="0 0 20 20" xmlns="http://www.w3.org/2000/svg" focusable="false"><path d="M6 2a2 2 0 0 0-2 2v12c0 1.1.9 2 2 2h8a2 2 0 0 0 2-2V7.41c0-.4-.16-.78-.44-1.06l-3.91-3.91A1.5 1.5 0 0 0 10.59 2H6ZM5 4a1 1 0 0 1 1-1h4v3.5c0 .83.67 1.5 1.5 1.5H15v8a1 1 0 0 1-1 1H6a1 1 0 0 1-1-1V4Zm9.8 3h-3.3a.5.5 0 0 1-.5-.5V3.2L14.8 7Z" fill="currentColor"></path></svg>