<svg class="fui-Icon-regular ___12fm75w f1w7gpdv fez10in fg4l7m0" fill="currentColor" aria-hidden="true" width="1em" height="1em" viewBox="0 0 20 20" xmlns="http://www.w3.org/2000/svg"><path d="M10.5 3h6.04l.09.02.06.02.08.04.05.04.06.06.03.04.04.07.03.08.02.08V9.5a.5.5 0 0 1-1 .09V4.7L4.7 16h4.8a.5.5 0 0 1 .5.41v.09a.5.5 0 0 1-.41.5H3.41l-.1-.04-.08-.04-.05-.04-.06-.06-.03-.04-.04-.07-.03-.08v-.02A.5.5 0 0 1 3 16.5v.07-6.07a.5.5 0 0 1 1-.09v4.89L15.3 4h-4.8a.5.5 0 0 1-.5-.41V3.5c0-.28.22-.5.5-.5Z" fill="currentColor"></path></svg>